<mxfile host="app.diagrams.net" agent="Mozilla/5.0 (Windows NT 10.0; Win64; x64) AppleWebKit/537.36 (KHTML, like Gecko) Chrome/131.0.0.0 Safari/537.36" version="24.7.8">
  <diagram id="C5RBs43oDa-KdzZeNtuy" name="Page-1">
    <mxGraphModel dx="954" dy="592" grid="1" gridSize="10" guides="1" tooltips="1" connect="1" arrows="1" fold="1" page="1" pageScale="1" pageWidth="827" pageHeight="1169" math="0" shadow="0">
      <root>
        <mxCell id="WIyWlLk6GJQsqaUBKTNV-0" />
        <mxCell id="WIyWlLk6GJQsqaUBKTNV-1" parent="WIyWlLk6GJQsqaUBKTNV-0" />
        <mxCell id="b5z2Wnowq-uhxzEn1UQt-35" value="" style="edgeStyle=orthogonalEdgeStyle;rounded=0;orthogonalLoop=1;jettySize=auto;html=1;" edge="1" parent="WIyWlLk6GJQsqaUBKTNV-1" source="b5z2Wnowq-uhxzEn1UQt-0" target="b5z2Wnowq-uhxzEn1UQt-2">
          <mxGeometry relative="1" as="geometry" />
        </mxCell>
        <mxCell id="b5z2Wnowq-uhxzEn1UQt-0" value="ID:2 Start&lt;div&gt;&lt;br&gt;&lt;/div&gt;" style="ellipse;whiteSpace=wrap;html=1;" vertex="1" parent="WIyWlLk6GJQsqaUBKTNV-1">
          <mxGeometry x="335" y="130" width="120" height="80" as="geometry" />
        </mxCell>
        <mxCell id="b5z2Wnowq-uhxzEn1UQt-53" value="" style="edgeStyle=orthogonalEdgeStyle;rounded=0;orthogonalLoop=1;jettySize=auto;html=1;" edge="1" parent="WIyWlLk6GJQsqaUBKTNV-1" source="b5z2Wnowq-uhxzEn1UQt-2" target="b5z2Wnowq-uhxzEn1UQt-52">
          <mxGeometry relative="1" as="geometry" />
        </mxCell>
        <mxCell id="b5z2Wnowq-uhxzEn1UQt-56" value="" style="edgeStyle=orthogonalEdgeStyle;rounded=0;orthogonalLoop=1;jettySize=auto;html=1;" edge="1" parent="WIyWlLk6GJQsqaUBKTNV-1" source="b5z2Wnowq-uhxzEn1UQt-2" target="b5z2Wnowq-uhxzEn1UQt-55">
          <mxGeometry relative="1" as="geometry" />
        </mxCell>
        <mxCell id="b5z2Wnowq-uhxzEn1UQt-2" value="Hent batteri-%" style="shape=parallelogram;perimeter=parallelogramPerimeter;whiteSpace=wrap;html=1;fixedSize=1;rounded=0;" vertex="1" parent="WIyWlLk6GJQsqaUBKTNV-1">
          <mxGeometry x="290" y="240" width="210" height="60" as="geometry" />
        </mxCell>
        <mxCell id="b5z2Wnowq-uhxzEn1UQt-37" value="" style="edgeStyle=orthogonalEdgeStyle;rounded=0;orthogonalLoop=1;jettySize=auto;html=1;" edge="1" parent="WIyWlLk6GJQsqaUBKTNV-1" source="b5z2Wnowq-uhxzEn1UQt-29" target="b5z2Wnowq-uhxzEn1UQt-2">
          <mxGeometry relative="1" as="geometry" />
        </mxCell>
        <mxCell id="b5z2Wnowq-uhxzEn1UQt-29" value="&lt;span style=&quot;background-color: initial;&quot;&gt;B&lt;/span&gt;&lt;div&gt;&lt;span style=&quot;background-color: initial;&quot;&gt;Main&lt;/span&gt;&lt;/div&gt;" style="ellipse;whiteSpace=wrap;html=1;aspect=fixed;" vertex="1" parent="WIyWlLk6GJQsqaUBKTNV-1">
          <mxGeometry x="60" y="230" width="80" height="80" as="geometry" />
        </mxCell>
        <mxCell id="b5z2Wnowq-uhxzEn1UQt-59" value="" style="edgeStyle=orthogonalEdgeStyle;rounded=0;orthogonalLoop=1;jettySize=auto;html=1;" edge="1" parent="WIyWlLk6GJQsqaUBKTNV-1" source="b5z2Wnowq-uhxzEn1UQt-44" target="b5z2Wnowq-uhxzEn1UQt-45">
          <mxGeometry relative="1" as="geometry" />
        </mxCell>
        <mxCell id="b5z2Wnowq-uhxzEn1UQt-44" value="Opdater Thingsboard med alt data" style="ellipse;whiteSpace=wrap;html=1;aspect=fixed;" vertex="1" parent="WIyWlLk6GJQsqaUBKTNV-1">
          <mxGeometry x="332.5" y="545.5" width="125" height="125" as="geometry" />
        </mxCell>
        <mxCell id="b5z2Wnowq-uhxzEn1UQt-61" style="edgeStyle=orthogonalEdgeStyle;rounded=0;orthogonalLoop=1;jettySize=auto;html=1;entryX=0;entryY=0.5;entryDx=0;entryDy=0;" edge="1" parent="WIyWlLk6GJQsqaUBKTNV-1" source="b5z2Wnowq-uhxzEn1UQt-45" target="b5z2Wnowq-uhxzEn1UQt-2">
          <mxGeometry relative="1" as="geometry">
            <Array as="points">
              <mxPoint x="190" y="270" />
            </Array>
          </mxGeometry>
        </mxCell>
        <mxCell id="b5z2Wnowq-uhxzEn1UQt-45" value="Vent lidt tid" style="rounded=0;whiteSpace=wrap;html=1;" vertex="1" parent="WIyWlLk6GJQsqaUBKTNV-1">
          <mxGeometry x="150" y="580.5" width="80" height="55" as="geometry" />
        </mxCell>
        <mxCell id="b5z2Wnowq-uhxzEn1UQt-52" value="&lt;span style=&quot;background-color: initial;&quot;&gt;A&lt;/span&gt;" style="ellipse;whiteSpace=wrap;html=1;aspect=fixed;" vertex="1" parent="WIyWlLk6GJQsqaUBKTNV-1">
          <mxGeometry x="550" y="230" width="80" height="80" as="geometry" />
        </mxCell>
        <mxCell id="b5z2Wnowq-uhxzEn1UQt-65" value="" style="edgeStyle=orthogonalEdgeStyle;rounded=0;orthogonalLoop=1;jettySize=auto;html=1;" edge="1" parent="WIyWlLk6GJQsqaUBKTNV-1" source="b5z2Wnowq-uhxzEn1UQt-55" target="b5z2Wnowq-uhxzEn1UQt-58">
          <mxGeometry relative="1" as="geometry" />
        </mxCell>
        <mxCell id="b5z2Wnowq-uhxzEn1UQt-55" value="Kontakt og beregn GPS Placering, Retning og hastighed" style="rounded=0;whiteSpace=wrap;html=1;" vertex="1" parent="WIyWlLk6GJQsqaUBKTNV-1">
          <mxGeometry x="310" y="340" width="170" height="60" as="geometry" />
        </mxCell>
        <mxCell id="b5z2Wnowq-uhxzEn1UQt-64" value="" style="edgeStyle=orthogonalEdgeStyle;rounded=0;orthogonalLoop=1;jettySize=auto;html=1;" edge="1" parent="WIyWlLk6GJQsqaUBKTNV-1" source="b5z2Wnowq-uhxzEn1UQt-58" target="b5z2Wnowq-uhxzEn1UQt-44">
          <mxGeometry relative="1" as="geometry" />
        </mxCell>
        <mxCell id="b5z2Wnowq-uhxzEn1UQt-58" value="Fortag temparturmÃ¥ling" style="shape=parallelogram;perimeter=parallelogramPerimeter;whiteSpace=wrap;html=1;fixedSize=1;rounded=0;" vertex="1" parent="WIyWlLk6GJQsqaUBKTNV-1">
          <mxGeometry x="290" y="440" width="210" height="60" as="geometry" />
        </mxCell>
      </root>
    </mxGraphModel>
  </diagram>
</mxfile>
